<?xml version="1.0" encoding="utf-8"?>
<!-- Generator: Adobe Illustrator 21.1.0, SVG Export Plug-In . SVG Version: 6.00 Build 0)  -->
<svg version="1.1" id="Layer_2" xmlns="http://www.w3.org/2000/svg" xmlns:xlink="http://www.w3.org/1999/xlink" x="0px" y="0px"
	 viewBox="0 0 317 97" style="enable-background:new 0 0 317 97;" xml:space="preserve">
<style type="text/css">
	.st0{clip-path:url(#SVGID_2_);}
	.st1{clip-path:url(#SVGID_4_);fill:#F8F7F5;}
	.st2{clip-path:url(#SVGID_6_);}
	.st3{clip-path:url(#SVGID_8_);fill:#F8F7F5;}
	.st4{clip-path:url(#SVGID_10_);}
	.st5{clip-path:url(#SVGID_12_);fill:#F8F7F5;}
	.st6{clip-path:url(#SVGID_14_);}
	.st7{clip-path:url(#SVGID_16_);enable-background:new    ;}
	.st8{clip-path:url(#SVGID_18_);}
	.st9{clip-path:url(#SVGID_20_);}
	.st10{clip-path:url(#SVGID_22_);fill:#F8F7F5;}
	.st11{clip-path:url(#SVGID_24_);}
	.st12{clip-path:url(#SVGID_26_);fill:#F8F7F5;}
	.st13{clip-path:url(#SVGID_28_);}
	.st14{clip-path:url(#SVGID_30_);fill:#F8F7F5;}
	.st15{clip-path:url(#SVGID_32_);}
	.st16{clip-path:url(#SVGID_34_);fill:#F8F7F5;}
	.st17{clip-path:url(#SVGID_36_);}
	.st18{clip-path:url(#SVGID_38_);fill:#F8F7F5;}
	.st19{clip-path:url(#SVGID_40_);}
	.st20{clip-path:url(#SVGID_42_);fill:#F8F7F5;}
	.st21{clip-path:url(#SVGID_44_);}
	.st22{clip-path:url(#SVGID_46_);fill:#F8F7F5;}
	.st23{clip-path:url(#SVGID_48_);}
	.st24{clip-path:url(#SVGID_50_);fill:#F8F7F5;}
	.st25{clip-path:url(#SVGID_52_);}
	.st26{clip-path:url(#SVGID_54_);fill:#F8F7F5;}
	.st27{clip-path:url(#SVGID_56_);}
	.st28{clip-path:url(#SVGID_58_);fill:#F8F7F5;}
	.st29{clip-path:url(#SVGID_60_);}
	.st30{clip-path:url(#SVGID_62_);fill:#F8F7F5;}
	.st31{clip-path:url(#SVGID_64_);}
	.st32{clip-path:url(#SVGID_66_);fill:#F8F7F5;}
</style>
<g>
	<defs>
		<path id="SVGID_1_" d="M202.4,34.2c5.7,0,8.3,3.6,8.3,8.8v19.4h-5.8V46.1c0-3.7-1.1-6.3-4.7-6.3c-3.7,0-4.8,2.6-4.8,6.2v16.4h-5.8
			V26.6l5.8-3.2v13.6C195.6,36.6,198.2,34.2,202.4,34.2z"/>
	</defs>
	<clipPath id="SVGID_2_">
		<use xlink:href="#SVGID_1_"  style="overflow:visible;"/>
	</clipPath>
	<g class="st0">
		<defs>
			<rect id="SVGID_3_" x="0" y="0.2" width="317" height="194.2"/>
		</defs>
		<clipPath id="SVGID_4_">
			<use xlink:href="#SVGID_3_"  style="overflow:visible;"/>
		</clipPath>
		<rect x="181.9" y="15.9" class="st1" width="36.4" height="54.1"/>
	</g>
</g>
<g>
	<defs>
		<path id="SVGID_5_" d="M172.2,26.1c8.4,0,11.3,6.8,11.3,6.8l-4.7,2.5c0,0-1.8-4.1-6.6-4.1c-4,0-6.1,2.3-6.1,4.6
			c0,8.1,18.7,3,18.7,16c0,5.6-4.7,11.2-12.9,11.2c-6.2,0-11-4.7-12.8-7.5l5.7-2.8c0,0,2.9,4.5,7.6,4.5c3.6,0,6-1.7,6-5
			c0-8.2-18.6-2.7-18.6-16.2C159.7,30,165.4,26.1,172.2,26.1"/>
	</defs>
	<clipPath id="SVGID_6_">
		<use xlink:href="#SVGID_5_"  style="overflow:visible;"/>
	</clipPath>
	<g class="st2">
		<defs>
			<rect id="SVGID_7_" x="0" y="0.2" width="317" height="194.2"/>
		</defs>
		<clipPath id="SVGID_8_">
			<use xlink:href="#SVGID_7_"  style="overflow:visible;"/>
		</clipPath>
		<rect x="151.5" y="18.5" class="st3" width="40.8" height="52.1"/>
	</g>
</g>
<g>
	<defs>
		<polygon id="SVGID_9_" points="62.9,26.6 38.6,26.6 38.6,31.9 47.5,31.9 47.5,62.4 54,62.4 54,31.9 62.9,31.9 		"/>
	</defs>
	<clipPath id="SVGID_10_">
		<use xlink:href="#SVGID_9_"  style="overflow:visible;"/>
	</clipPath>
	<g class="st4">
		<defs>
			<rect id="SVGID_11_" x="0" y="0.2" width="317" height="194.2"/>
		</defs>
		<clipPath id="SVGID_12_">
			<use xlink:href="#SVGID_11_"  style="overflow:visible;"/>
		</clipPath>
		<rect x="31" y="19" class="st5" width="39.4" height="50.9"/>
	</g>
</g>
<g>
	<defs>
		<rect id="SVGID_13_" x="0" y="0.2" width="316.9" height="96.9"/>
	</defs>
	<clipPath id="SVGID_14_">
		<use xlink:href="#SVGID_13_"  style="overflow:visible;"/>
	</clipPath>
	<g class="st6">
		<defs>
			<rect id="SVGID_15_" x="0" y="0.2" width="317" height="194.2"/>
		</defs>
		<clipPath id="SVGID_16_">
			<use xlink:href="#SVGID_15_"  style="overflow:visible;"/>
		</clipPath>
		<g class="st7">
			<g>
				<defs>
					<rect id="SVGID_17_" x="0" y="0.2" width="317" height="97.1"/>
				</defs>
				<clipPath id="SVGID_18_">
					<use xlink:href="#SVGID_17_"  style="overflow:visible;"/>
				</clipPath>
				<g class="st8">
					<defs>
						<rect id="SVGID_19_" x="94.6" y="34.7" width="5.8" height="27.7"/>
					</defs>
					<clipPath id="SVGID_20_">
						<use xlink:href="#SVGID_19_"  style="overflow:visible;"/>
					</clipPath>
					<g class="st9">
						<defs>
							<rect id="SVGID_21_" x="0" y="0.2" width="317" height="97.1"/>
						</defs>
						<clipPath id="SVGID_22_">
							<use xlink:href="#SVGID_21_"  style="overflow:visible;"/>
						</clipPath>
						<rect x="87" y="27.1" class="st10" width="21" height="42.9"/>
					</g>
				</g>
				<g class="st8">
					<defs>
						<path id="SVGID_23_" d="M100.8,28.3c0,1.9-1.5,3.5-3.4,3.5c-1.9,0-3.4-1.6-3.4-3.5c0-1.9,1.5-3.5,3.4-3.5
							C99.3,24.8,100.8,26.4,100.8,28.3"/>
					</defs>
					<clipPath id="SVGID_24_">
						<use xlink:href="#SVGID_23_"  style="overflow:visible;"/>
					</clipPath>
					<g class="st11">
						<defs>
							<rect id="SVGID_25_" x="0" y="0.2" width="317" height="97.1"/>
						</defs>
						<clipPath id="SVGID_26_">
							<use xlink:href="#SVGID_25_"  style="overflow:visible;"/>
						</clipPath>
						<rect x="86.6" y="17.2" class="st12" width="21.9" height="22.2"/>
					</g>
				</g>
				<g class="st8">
					<defs>
						<polygon id="SVGID_27_" points="149.4,62.4 155.5,62.4 146.8,44.8 155,34.7 148,34.7 140.1,44.8 140.1,23.5 134.3,26.7 
							134.3,62.4 140.1,62.4 140.1,53.2 143.2,49.5 						"/>
					</defs>
					<clipPath id="SVGID_28_">
						<use xlink:href="#SVGID_27_"  style="overflow:visible;"/>
					</clipPath>
					<g class="st13">
						<defs>
							<rect id="SVGID_29_" x="0" y="0.2" width="317" height="97.1"/>
						</defs>
						<clipPath id="SVGID_30_">
							<use xlink:href="#SVGID_29_"  style="overflow:visible;"/>
						</clipPath>
						<rect x="126.7" y="15.9" class="st14" width="36.3" height="54"/>
					</g>
				</g>
				<g class="st8">
					<defs>
						<path id="SVGID_31_" d="M281.2,40.4h5.2v-5.7h-5.2V23.5l-5.9,3.2l0,8h-3.9v5.7h3.9l0,15.4c0,4.9,1.9,7.1,5.5,7.1
							c2.9,0,4.8-1,5.7-1.5l0-5.5c0,0-1.9,1.4-3.2,1.4c-1.4,0-2.1-1.2-2.1-3.7V40.4z"/>
					</defs>
					<clipPath id="SVGID_32_">
						<use xlink:href="#SVGID_31_"  style="overflow:visible;"/>
					</clipPath>
					<g class="st15">
						<defs>
							<rect id="SVGID_33_" x="0" y="0.2" width="317" height="97.1"/>
						</defs>
						<clipPath id="SVGID_34_">
							<use xlink:href="#SVGID_33_"  style="overflow:visible;"/>
						</clipPath>
						<rect x="263.8" y="15.9" class="st16" width="30.3" height="54.7"/>
					</g>
				</g>
				<g class="st8">
					<defs>
						<path id="SVGID_35_" d="M80,34.1c-4.2,0-6.6,2.7-7.1,3h0V23.5L67,26.6v35.8h5.8V46.3c0-3.5,1.1-6.2,4.8-6.2
							c3.7,0,4.7,2.5,4.7,6.3v16h5.8V43.3C88.2,38.1,85.6,34.1,80,34.1"/>
					</defs>
					<clipPath id="SVGID_36_">
						<use xlink:href="#SVGID_35_"  style="overflow:visible;"/>
					</clipPath>
					<g class="st17">
						<defs>
							<rect id="SVGID_37_" x="0" y="0.2" width="317" height="97.1"/>
						</defs>
						<clipPath id="SVGID_38_">
							<use xlink:href="#SVGID_37_"  style="overflow:visible;"/>
						</clipPath>
						<rect x="59.4" y="15.9" class="st18" width="36.4" height="54.1"/>
					</g>
				</g>
				<g class="st8">
					<defs>
						<path id="SVGID_39_" d="M119.5,34.1c-4.2,0-6.6,2.7-7.2,3.1v0v-2.7h-5.5v27.7h5.5V46.4c0-3.6,1.3-6.2,4.9-6.2
							c3.7,0,4.9,2.5,4.9,6.3v16h5.8V43.3C127.9,38.1,125.2,34.1,119.5,34.1"/>
					</defs>
					<clipPath id="SVGID_40_">
						<use xlink:href="#SVGID_39_"  style="overflow:visible;"/>
					</clipPath>
					<g class="st19">
						<defs>
							<rect id="SVGID_41_" x="0" y="0.2" width="317" height="97.1"/>
						</defs>
						<clipPath id="SVGID_42_">
							<use xlink:href="#SVGID_41_"  style="overflow:visible;"/>
						</clipPath>
						<rect x="99.2" y="26.6" class="st20" width="36.4" height="43.4"/>
					</g>
				</g>
				<g class="st8">
					<defs>
						<path id="SVGID_43_" d="M260.8,34.7v16v0c0,3.7-1.1,6.3-4.8,6.3c-3.7,0-4.7-2.5-4.7-6.2v-16h-5.8v19.1c0,5.2,2.5,9.2,8.2,9.2
							c4.2,0,6.8-2.8,7.2-3.3v2.7h5.8V34.7H260.8z"/>
					</defs>
					<clipPath id="SVGID_44_">
						<use xlink:href="#SVGID_43_"  style="overflow:visible;"/>
					</clipPath>
					<g class="st21">
						<defs>
							<rect id="SVGID_45_" x="0" y="0.2" width="317" height="97.1"/>
						</defs>
						<clipPath id="SVGID_46_">
							<use xlink:href="#SVGID_45_"  style="overflow:visible;"/>
						</clipPath>
						<rect x="237.9" y="27.1" class="st22" width="36.4" height="43.5"/>
					</g>
				</g>
				<g class="st8">
					<defs>
						<path id="SVGID_47_" d="M228.1,34.2c-8.7,0-12.6,6.1-12.6,14.4s4,14.5,12.6,14.5c8.7,0,12.6-6.5,12.6-14.5
							C240.7,40.6,236.8,34.2,228.1,34.2 M228.1,57.4c-4.8,0-6.9-4-6.9-8.9c0-4.9,2.1-8.8,6.9-8.8c4.8,0,6.9,3.9,6.9,8.8
							C235,53.5,232.8,57.4,228.1,57.4"/>
					</defs>
					<clipPath id="SVGID_48_">
						<use xlink:href="#SVGID_47_"  style="overflow:visible;"/>
					</clipPath>
					<g class="st23">
						<defs>
							<rect id="SVGID_49_" x="0" y="0.2" width="317" height="97.1"/>
						</defs>
						<clipPath id="SVGID_50_">
							<use xlink:href="#SVGID_49_"  style="overflow:visible;"/>
						</clipPath>
						<rect x="207.8" y="26.6" class="st24" width="40.5" height="44"/>
					</g>
				</g>
				<g class="st8">
					<defs>
						<path id="SVGID_51_" d="M66.1,74.3c-3.5,2.8-7.7,4-12.3,4c-6.9,0-13.4-3.4-17.4-9.1l-1.3-1.8L33,67.9
							c-1.7,0.4-3.5,0.7-5.3,0.7C16,68.6,6.4,59,6.4,47.2c0-5.6,2.1-10.8,5.9-14.8c3.8-4,8.9-6.3,14.4-6.6l2.4-0.1l0.6-2.4
							c1.1-4.6,3.7-8.8,7.4-11.7c3.8-3.1,8.4-4.8,13.2-4.8c6.4,0,12.1,2.9,16,7.2h7.9c-4.8-8-13.7-13.7-23.9-13.7
							c-6.3,0-12.4,2.2-17.3,6.2c-4.2,3.4-7.3,8-9,13.1c-6.2,0.8-12,3.8-16.4,8.4C2.7,33.1,0,39.9,0,47.2
							c0,15.4,12.4,27.9,27.7,27.9c1.6,0,3.2-0.1,4.8-0.4c5.2,6.4,13.1,10.1,21.3,10.1c8.7,0,16.5-4,21.6-10.5H66.1z"/>
					</defs>
					<clipPath id="SVGID_52_">
						<use xlink:href="#SVGID_51_"  style="overflow:visible;"/>
					</clipPath>
					<g class="st25">
						<defs>
							<rect id="SVGID_53_" x="0" y="0.2" width="317" height="97.1"/>
						</defs>
						<clipPath id="SVGID_54_">
							<use xlink:href="#SVGID_53_"  style="overflow:visible;"/>
						</clipPath>
						<rect x="-7.6" y="-7.3" class="st26" width="90.5" height="99.7"/>
					</g>
				</g>
				<g class="st8">
					<defs>
						<path id="SVGID_55_" d="M305.3,7.2h-44.1l-3.3,6.5h47.4c2.9,0,5.2,2.6,5.2,5.6v50.4c0,2.9-2.3,5.3-5.2,5.3h-68l3.3,6.5h51.9
							l9.7,12.9l1.3,0l-1.1-12.9h2.9c6.5,0,11.7-5.3,11.7-11.8V19.2C316.9,12.7,311.7,7.2,305.3,7.2"/>
					</defs>
					<clipPath id="SVGID_56_">
						<use xlink:href="#SVGID_55_"  style="overflow:visible;"/>
					</clipPath>
					<g class="st27">
						<defs>
							<rect id="SVGID_57_" x="0" y="0.2" width="317" height="97.1"/>
						</defs>
						<clipPath id="SVGID_58_">
							<use xlink:href="#SVGID_57_"  style="overflow:visible;"/>
						</clipPath>
						<rect x="229.7" y="-0.4" class="st28" width="94.8" height="102.2"/>
					</g>
				</g>
				<g class="st8">
					<defs>
						<path id="SVGID_59_" d="M32.8,84c0-2.6-2.1-4.7-4.7-4.7c-2.6,0-4.7,2.1-4.7,4.7c0,2.6,2.1,4.7,4.7,4.7
							C30.7,88.7,32.8,86.6,32.8,84"/>
					</defs>
					<clipPath id="SVGID_60_">
						<use xlink:href="#SVGID_59_"  style="overflow:visible;"/>
					</clipPath>
					<g class="st29">
						<defs>
							<rect id="SVGID_61_" x="0" y="0.2" width="317" height="97.1"/>
						</defs>
						<clipPath id="SVGID_62_">
							<use xlink:href="#SVGID_61_"  style="overflow:visible;"/>
						</clipPath>
						<rect x="15.8" y="71.8" class="st30" width="24.5" height="24.5"/>
					</g>
				</g>
				<g class="st8">
					<defs>
						<path id="SVGID_63_" d="M25.5,94c0-1.7-1.4-3.1-3.1-3.1c-1.7,0-3.1,1.4-3.1,3.1c0,1.7,1.4,3.1,3.1,3.1
							C24.2,97.1,25.5,95.7,25.5,94"/>
					</defs>
					<clipPath id="SVGID_64_">
						<use xlink:href="#SVGID_63_"  style="overflow:visible;"/>
					</clipPath>
					<g class="st31">
						<defs>
							<rect id="SVGID_65_" x="0" y="0.2" width="317" height="97.1"/>
						</defs>
						<clipPath id="SVGID_66_">
							<use xlink:href="#SVGID_65_"  style="overflow:visible;"/>
						</clipPath>
						<rect x="11.8" y="83.4" class="st32" width="21.3" height="21.3"/>
					</g>
				</g>
			</g>
		</g>
	</g>
</g>
</svg>
